<svg width="228" height="44" viewBox="0 0 228 44" fill="none" xmlns="http://www.w3.org/2000/svg">
<path d="M10.0397 10.9156V14.9703H20.5014V22.182H10.0397V26.1702H22.8776V33.5489H0.634003V3.53687H22.8776V10.9156H10.0397ZM23.8884 12.8739H33.3656L36.6128 23.1472H36.7122L39.9594 12.8739H49.5022L41.3842 33.8819H31.9737L23.8884 12.8739ZM48.8282 23.0282C48.8282 16.3286 53.2638 11.8739 59.983 11.8739C66.9011 11.8739 71.072 16.0361 71.072 23.0282V24.9142H57.1693C57.4346 26.7678 58.6259 28.0042 60.2483 28.0042C61.4067 28.0042 62.565 27.451 63.0615 26.5731H71.039C70.3437 31.1583 65.9746 34.2154 59.983 34.2154C53.3303 34.2477 48.8282 29.7602 48.8282 23.0282ZM63.3927 20.8821C63.1279 18.9631 61.9361 17.7273 60.2483 17.7273C58.6594 17.7273 57.4676 18.9307 57.2687 20.8821H63.3927ZM74.4423 12.6918H83.0568V14.9183H83.1556C83.9117 12.9872 85.3584 11.8739 87.167 11.8739C87.8577 11.8739 88.5149 11.9716 89.2715 12.2011V20.2226C88.5149 20.059 87.8241 19.9278 87.2328 19.9278C84.7665 19.9278 83.4186 21.6629 83.4186 25.0356V33.5489H74.4417V12.6918H74.4423ZM118.255 12.8739L105.586 43.8859H95.6532L100.113 33.6472L90.6193 12.8739H100.282L104.64 23.5397H104.775L108.66 12.8739H118.255ZM119.94 3.53744H132.931C140.812 3.53744 145.554 7.92446 145.554 15.1026C145.554 22.3149 140.812 26.7684 132.931 26.7684H129.457V33.5489H119.94V3.53687V3.53744ZM132.23 19.2908C134.467 19.2908 135.903 17.6285 135.903 15.1362C135.903 12.7097 134.467 11.0815 132.23 11.0815H129.457V19.3238H132.23V19.2908ZM147.576 0.535889H156.676V33.5489H147.576V0.535889ZM159.035 23.012C159.035 16.3552 162.863 11.8734 168.555 11.8734C170.585 11.8734 173.116 12.4583 174.513 14.4391H174.647V12.6849H183.3V33.4039H174.647V31.6502H174.513C173.016 33.5657 170.552 34.2154 168.555 34.2154C162.863 34.2154 159.035 29.6688 159.035 23.012ZM174.247 23.012C174.247 20.1544 173.016 18.336 170.885 18.336C168.955 18.336 167.723 20.2521 167.723 23.012C167.723 25.8049 168.955 27.688 170.885 27.688C172.982 27.7204 174.247 25.902 174.247 23.0126V23.012ZM188.923 25.6055V19.6116H185.323V12.2936H188.923V5.53791H198.023V12.2936H203.522V19.6446H198.023V23.7842C198.023 25.6055 198.822 26.4667 200.822 26.4667C201.689 26.4667 202.655 26.3008 203.522 26.1684V33.4536C202.455 33.9171 200.389 34.2154 198.456 34.2154C192.722 34.2483 188.923 30.8046 188.923 25.6055ZM205.544 23.0282C205.544 16.3286 209.98 11.8739 216.699 11.8739C223.617 11.8739 227.788 16.0361 227.788 23.0282V24.9142H213.885C214.151 26.7678 215.342 28.0042 216.964 28.0042C218.122 28.0042 219.281 27.451 219.777 26.5731H227.755C227.06 31.1583 222.69 34.2154 216.699 34.2154C210.046 34.2477 205.544 29.7602 205.544 23.0282ZM220.109 20.8821C219.844 18.9631 218.652 17.7273 216.964 17.7273C215.375 17.7273 214.184 18.9307 213.985 20.8821H220.109Z" fill="#FD9A4D"/>
</svg>
